<svg width="54" height="31" viewBox="0 0 54 31" fill="none" xmlns="http://www.w3.org/2000/svg">
<path fill-rule="evenodd" clip-rule="evenodd" d="M25 5.99999V11.8625L29.1375 16L25 20.1375V26H19.1375L15 30.1375L10.8625 26H5.00005V20.1375L0.862549 16L5.00005 11.8625V5.99999H10.8625L15 1.86249L19.1375 5.99999H25ZM22.5 23.5V19.1L25.6 16L22.5 12.9V8.49999H18.1L15 5.39999L11.9 8.49999H7.50005V12.9L4.40005 16L7.50005 19.1V23.5H11.9L15 26.6L18.1 23.5H22.5ZM15 8.49999C10.8625 8.49999 7.50005 11.8625 7.50005 16C7.50005 20.1375 10.8625 23.5 15 23.5C19.1375 23.5 22.5 20.1375 22.5 16C22.5 11.8625 19.1375 8.49999 15 8.49999ZM10 16C10 18.7625 12.2375 21 15 21C17.7625 21 20 18.7625 20 16C20 13.2375 17.7625 11 15 11C12.2375 11 10 13.2375 10 16Z" fill="#B69A5C"/>
<path fill-rule="evenodd" clip-rule="evenodd" d="M40.25 11.25C40.25 8.78179 41.2756 6.48096 43.0498 4.83456L44.8967 3.12059L42.4146 2.68695C41.7043 2.56286 40.9809 2.5 40.25 2.5C33.3464 2.5 27.75 8.09644 27.75 15C27.75 21.9036 33.3464 27.5 40.25 27.5C44.4817 27.5 48.3553 25.3798 50.6583 21.9244L52.0539 19.8303L49.542 19.9835C49.3622 19.9945 49.1815 20 49 20C44.1675 20 40.25 16.0825 40.25 11.25ZM40.25 25C34.7272 25 30.25 20.5228 30.25 15C30.25 9.68488 34.3967 5.33828 39.6314 5.01882C38.4209 6.8356 37.75 8.98979 37.75 11.25C37.75 16.7988 41.7671 21.4093 47.0518 22.3319C45.2348 24.0192 42.8262 25 40.25 25Z" fill="#B69A5C"/>
</svg>
