<svg width="37" height="37" viewBox="0 0 37 37" fill="none" xmlns="http://www.w3.org/2000/svg">
<path fill-rule="evenodd" clip-rule="evenodd" d="M21.5833 6.16668H24.1579C25.2833 6.16668 26.2083 7.09168 26.2083 8.21709V31.8663C26.2083 32.9917 25.2833 33.9167 24.1425 33.9167H12.842C11.7166 33.9167 10.7916 32.9917 10.7916 31.8508V8.21709C10.7916 7.09168 11.7166 6.16668 12.842 6.16668H15.4166V3.08334H21.5833V6.16668ZM16.9583 22.3542V30.8333L23.125 19.2708H20.0416V10.7917L13.875 22.3542H16.9583Z" fill="#B69A5C"/>
<path d="M0 0V-1H-1V0H0ZM37 0H38V-1H37V0ZM37 37V38H38V37H37ZM0 37H-1V38H0V37ZM0 1H37V-1H0V1ZM36 0V37H38V0H36ZM37 36H0V38H37V36ZM1 37V0H-1V37H1Z" fill="white"/>
</svg>
