<svg width="29" height="39" viewBox="0 0 29 39" fill="none" xmlns="http://www.w3.org/2000/svg">
<path fill-rule="evenodd" clip-rule="evenodd" d="M0.659128 25.7662L0.629965 32.3162C0.620125 34.5262 2.38979 36.3242 4.58453 36.3341L18.3389 36.3962C19.7093 36.4023 20.8266 35.2874 20.8327 33.9074C20.8335 33.7374 20.8144 33.5673 20.7853 33.4072L21.0634 33.4084C22.4338 33.4146 23.5511 32.2997 23.5572 30.9197C23.5587 30.5897 23.5005 30.2694 23.3827 29.9789C24.0401 29.5318 24.4705 28.7838 24.4743 27.9238C24.4802 26.6038 23.4621 25.5192 22.1715 25.4234C22.202 25.2535 22.2227 25.0836 22.2234 24.9136C22.2296 23.5336 21.1223 22.4086 19.7518 22.4024L10.2678 22.3596L11.5497 19.9553C11.9402 19.2271 11.835 18.3166 11.2916 17.6942L9.48344 15.616L1.8935 22.8818C1.11555 23.6283 0.663936 24.6863 0.659128 25.7662ZM3.26759 24.328L9.35155 18.4954L9.79617 19.0074L6.9619 24.3447L19.743 24.4024C20.0111 24.4036 20.2386 24.6246 20.2373 24.9046C20.2361 25.1846 20.0166 25.4036 19.7386 25.4024L12.5784 25.37L12.5695 27.37L21.9939 27.4126C22.272 27.4138 22.4895 27.6348 22.4882 27.9148C22.487 28.1948 22.2675 28.4138 21.9895 28.4126L12.565 28.37L12.5561 30.37L21.0768 30.4085C21.3549 30.4097 21.5724 30.6307 21.5712 30.9107C21.5699 31.1907 21.3504 31.4097 21.0724 31.4085L12.5516 31.37L12.5427 33.37L18.3523 33.3962C18.6304 33.3974 18.8479 33.6184 18.8467 33.8984C18.8454 34.1784 18.6259 34.3974 18.3479 34.3962L4.59354 34.3341C3.50114 34.3292 2.61136 33.4251 2.61626 32.3251L2.64546 25.7652C2.64787 25.2252 2.87859 24.7063 3.26759 24.328Z" fill="#B69A5C"/>
<path d="M16.9302 10.9C14.6759 10.31 13.9509 9.7 13.9509 8.75C13.9509 7.66 14.954 6.9 16.6323 6.9C18.4 6.9 19.0555 7.75 19.1151 9H21.3098C21.2403 7.28 20.1976 5.7 18.122 5.19V3H15.1427V5.16C13.216 5.58 11.6668 6.84 11.6668 8.77C11.6668 11.08 13.5636 12.23 16.3344 12.9C18.8171 13.5 19.3137 14.38 19.3137 15.31C19.3137 16 18.8271 17.1 16.6323 17.1C14.5865 17.1 13.7821 16.18 13.6729 15H11.488C11.6072 17.19 13.2359 18.42 15.1427 18.83V21H18.122V18.85C20.0585 18.48 21.5978 17.35 21.5978 15.3C21.5978 12.46 19.1846 11.49 16.9302 10.9Z" fill="#B69A5C"/>
</svg>
