<svg width="37" height="37" viewBox="0 0 37 37" fill="none" xmlns="http://www.w3.org/2000/svg">
<path fill-rule="evenodd" clip-rule="evenodd" d="M26.9791 5.39584C28.7829 5.39584 30.6637 5.62709 32.375 6.16668C33.5312 6.55209 34.5333 7.01459 35.4583 7.70834V30.2167C35.4583 30.6021 35.0729 30.9875 34.6875 30.9875C34.5333 30.9875 34.4562 30.9875 34.302 30.9104C32.1437 29.7542 29.5229 29.2917 26.9791 29.2917C24.3583 29.2917 20.5812 30.2938 18.5 31.6042C16.2645 29.9083 13.027 29.2917 10.0208 29.2917C7.78538 29.2917 4.77913 29.9854 2.69788 30.9875C2.62079 30.9875 2.56298 31.0068 2.50517 31.0261C2.44735 31.0453 2.38954 31.0646 2.31246 31.0646C1.92704 31.0646 1.54163 30.6792 1.54163 30.2938V7.70834C3.77704 6.01251 7.01454 5.39584 10.0208 5.39584C13.027 5.39584 16.2645 6.01251 18.5 7.70834C20.7354 6.01251 23.9729 5.39584 26.9791 5.39584ZM26.9791 26.2083C28.8291 26.2083 30.6791 26.4396 32.375 26.9792V9.25001C30.6791 8.71043 28.8291 8.47918 26.9791 8.47918C24.3583 8.47918 20.5812 9.48126 18.5 10.7917V28.5208C20.5812 27.2104 24.3583 26.2083 26.9791 26.2083Z" fill="#B69A5C"/>
</svg>
